<?xml version="1.0" encoding="utf-8"?>
<svg width="13px" height="16px" viewbox="0 0 13 16" version="1.1" xmlns:xlink="http://www.w3.org/1999/xlink" xmlns="http://www.w3.org/2000/svg">
  <g id="261913">
    <path d="M11.1881 5.594C11.1881 10.0733 6.1313 14.2219 6.1313 14.2219C5.83585 14.4643 5.3523 14.4643 5.0568 14.2219C5.0568 14.2219 0 10.0733 0 5.594C0 2.5045 2.50455 0 5.594 0C8.68345 0 11.1881 2.50455 11.1881 5.594Z" transform="translate(0.41285706 0.41290283)" id="Path" fill="#F14742" fill-rule="evenodd" stroke="none" />
    <path d="M2.8144 5.62875C1.26255 5.62875 0 4.3662 0 2.81435C0 1.2625 1.26255 0 2.8144 0C4.36625 0 5.6288 1.26255 5.6288 2.8144C5.6288 4.36625 4.36625 5.62875 2.8144 5.62875Z" transform="translate(3.192505 3.1925354)" id="Path" fill="#FFFFFF" fill-rule="evenodd" stroke="none" />
    <path d="M5.2078 14.954C5.43185 15.1378 5.71935 15.2297 6.00695 15.2297C6.29445 15.2297 6.58205 15.1378 6.80605 14.954C6.85905 14.9105 8.11925 13.8701 9.3963 12.2569C11.1332 10.0627 12.0138 7.95985 12.0138 6.00695C12.0139 2.69465 9.31915 0 6.00695 0C2.69475 0 0 2.69465 0 6.0069C0 7.95985 0.8807 10.0626 2.61755 12.2568C3.8946 13.8701 5.1548 14.9104 5.2078 14.954ZM6.00694 0.825806C8.86384 0.825806 11.188 3.15006 11.188 6.00691C11.188 10.2358 6.33119 14.2753 6.28224 14.3156C6.13804 14.4337 5.87559 14.4338 5.73164 14.3156C5.68259 14.2753 0.825745 10.2359 0.825745 6.00691C0.825795 3.15006 3.15004 0.825806 6.00694 0.825806Z" id="Shape" fill="#202841" stroke="none" />
    <path d="M6.4546 3.2273C6.4546 1.44775 5.00685 0 3.2273 0C1.44775 0 0 1.44775 0 3.2273C0 5.00685 1.44775 6.4546 3.2273 6.4546C5.00685 6.4546 6.4546 5.0069 6.4546 3.2273ZM0.825806 3.22731C0.825806 1.90311 1.90311 0.825806 3.22731 0.825806C4.55146 0.825806 5.62881 1.90311 5.62881 3.22731C5.62881 4.55151 4.55151 5.62881 3.22731 5.62881C1.90316 5.62881 0.825806 4.55151 0.825806 3.22731Z" transform="translate(2.779602 2.779602)" id="Shape" fill="#202841" stroke="none" />
  </g>
</svg>