<?xml version="1.0" encoding="UTF-8"?>
<svg width="16px" height="4px" viewBox="0 0 16 4" version="1.1" xmlns="http://www.w3.org/2000/svg" xmlns:xlink="http://www.w3.org/1999/xlink">
    <!-- Generator: Sketch 60.1 (88133) - https://sketch.com -->
    <title>2 Tone</title>
    <desc>Created with Sketch.</desc>
    <defs>
        <path d="M14,0 C15.103,0 16,0.897 16,2 C16,3.103 15.103,4 14,4 C12.897,4 12,3.103 12,2 C12,0.897 12.897,0 14,0 Z M8,0 C9.103,0 10,0.897 10,2 C10,3.103 9.103,4 8,4 C6.897,4 6,3.103 6,2 C6,0.897 6.897,0 8,0 Z M2,0 C3.103,0 4,0.897 4,2 C4,3.103 3.103,4 2,4 C0.897,4 0,3.103 0,2 C0,0.897 0.897,0 2,0 Z" id="path-1"></path>
    </defs>
    <g id="UI" stroke="none" stroke-width="1" fill="none" fill-rule="evenodd">
        <g id="11.-Profile" transform="translate(-476.000000, -797.000000)">
            <g id="Projects" transform="translate(125.000000, 704.000000)">
                <rect id="Rectangle" stroke-opacity="0.4" stroke="#88A6B5" fill="#FFFFFF" x="0" y="0" width="1190" height="313" rx="20"></rect>
                <g id="Project" transform="translate(20.000000, 64.000000)">
                    <rect id="Rectangle" fill-opacity="0.1" fill="#0080DD" x="0" y="0" width="370" height="229" rx="10"></rect>
                    <g id="Polaris-icon/Major/2-Tone/Mobile-Horizontal-Dots" transform="translate(329.000000, 21.000000)">
                        <g id="Icon" transform="translate(2.000000, 8.000000)">
                            <mask id="mask-2" fill="white">
                                <use xlink:href="#path-1"></use>
                            </mask>
                            <use id="Mask" fill="#919EAB" xlink:href="#path-1"></use>
                            <g id="2-Tone/InkLightest" mask="url(#mask-2)" fill="#CFAA40">
                                <g transform="translate(-2.000000, -8.000000)">
                                    <rect x="0" y="0" width="21" height="21"></rect>
                                </g>
                            </g>
                        </g>
                    </g>
                </g>
            </g>
        </g>
    </g>
</svg>