<?xml version="1.0" encoding="utf-8"?>
<svg width="16px" height="16px" viewbox="0 0 16 16" version="1.1" xmlns:xlink="http://www.w3.org/1999/xlink" xmlns="http://www.w3.org/2000/svg">
  <g id="260251">
    <path d="M7.71422 15.4284C11.9747 15.4284 15.4284 11.9747 15.4284 7.71422C15.4284 3.45377 11.9747 0 7.71422 0C3.45377 0 0 3.45377 0 7.71422C0 11.9747 3.45377 15.4284 7.71422 15.4284Z" transform="translate(0.28590775 0.2859192)" id="Oval" fill="#F7B239" fill-rule="evenodd" stroke="none" />
    <path d="M0 0L7.77712 0C7.77712 0.4365 7.70506 0.85625 7.57241 1.24816L0.204719 1.24816C0.0720312 0.85625 0 0.4365 0 0Z" transform="translate(3.997219 8.553864)" id="Path" fill="#FFFFFF" fill-rule="evenodd" stroke="none" />
    <path d="M0 0L7.36766 0C7.10613 0.772375 6.60862 1.43534 5.96091 1.90387C5.68872 1.44525 5.18853 1.13797 4.61631 1.13797C4.26672 1.13797 3.94419 1.25272 3.68381 1.44678C3.42344 1.25275 3.10053 1.13797 2.75094 1.13797C2.17909 1.13797 1.67853 1.44525 1.40672 1.90387C0.759031 1.43531 0.261531 0.772375 0 0Z" transform="translate(4.2019386 9.802032)" id="Path" fill="#A81004" fill-rule="evenodd" stroke="none" />
    <path d="M3.20959 0C3.78181 0 4.282 0.307281 4.55419 0.765906C3.91409 1.22947 3.12725 1.50244 2.27709 1.50244C1.42694 1.50244 0.640094 1.22947 0 0.765906C0.271812 0.307281 0.772375 0 1.34422 0C1.69381 0 2.01672 0.11475 2.27709 0.308812C2.5375 0.11475 2.86 0 3.20959 0Z" transform="translate(5.608656 10.940002)" id="Path" fill="#F95428" fill-rule="evenodd" stroke="none" />
    <path d="M8.00003 0C3.58878 0 0 3.58878 0 7.99997C0 12.4112 3.58878 16 8.00003 16C12.4112 16 16 12.4112 16 7.99997C16 3.58878 12.4112 0 8.00003 0ZM8.00003 15.4282C3.90413 15.4282 0.571844 12.0959 0.571844 7.99997C0.571844 3.90409 3.90409 0.571844 8.00003 0.571844C12.0959 0.571844 15.4282 3.90409 15.4282 7.99997C15.4282 12.0959 12.0959 15.4282 8.00003 15.4282Z" id="Shape" fill="#202841" stroke="none" />
    <path d="M1.05788 2.11575C1.64119 2.11575 2.11575 1.64119 2.11575 1.05788C2.11575 0.474563 1.64119 0 1.05788 0C0.474563 0 0 0.474563 0 1.05788C0 1.64119 0.474531 2.11575 1.05788 2.11575Z" transform="translate(3.5272808 5.343048)" id="Path" fill="#202841" fill-rule="evenodd" stroke="none" />
    <path d="M1.05788 0C0.474563 0 0 0.474563 0 1.05788C0 1.64119 0.474563 2.11575 1.05788 2.11575C1.64119 2.11575 2.11575 1.64119 2.11575 1.05788C2.11575 0.474563 1.64116 0 1.05788 0Z" transform="translate(10.357031 5.3430786)" id="Path" fill="#202841" fill-rule="evenodd" stroke="none" />
    <path d="M8.06303 0L0.285937 0C0.128031 0 0 0.128031 0 0.285938C0 0.744125 0.0739687 1.19491 0.219812 1.62581C0.499 2.45025 1.02116 3.15703 1.72969 3.66956C2.44406 4.18697 3.2895 4.46047 4.17447 4.46047C5.05947 4.46047 5.90487 4.18697 6.61916 3.66969C7.32781 3.15703 7.85 2.45028 8.12912 1.62587L8.12912 1.62587C8.27497 1.195 8.34894 0.744187 8.34894 0.286031C8.34897 0.128031 8.22094 0 8.06303 0ZM7.76591 0.571844C7.74791 0.801156 7.70797 1.02731 7.64687 1.24816L0.702031 1.24816C0.640969 1.02731 0.601 0.801188 0.583 0.571844L7.76591 0.571844ZM2.30641 3.36681C2.54544 3.11025 2.8845 2.95797 3.24156 2.95797C3.51875 2.95797 3.78225 3.04516 4.00359 3.21012C4.10497 3.28566 4.24394 3.28569 4.34528 3.21012C4.56659 3.04516 4.82997 2.95797 5.10691 2.95797C5.46381 2.95797 5.80297 3.11019 6.04228 3.36687C5.48066 3.70897 4.84059 3.88856 4.17441 3.88856C3.50822 3.88856 2.86816 3.70897 2.30641 3.36681ZM6.50813 3.03053C6.16009 2.62741 5.64769 2.38613 5.10694 2.38613C4.77497 2.38613 4.45634 2.47275 4.17444 2.63819C3.89253 2.47269 3.57378 2.38613 3.24156 2.38613C2.70056 2.38613 2.18816 2.62747 1.84063 3.03038C1.44616 2.69569 1.13188 2.28491 0.913594 1.82L7.43528 1.82C7.217 2.285 6.90269 2.69581 6.50813 3.03053Z" transform="translate(3.7112808 8.267944)" id="Shape" fill="#202841" stroke="none" />
    <g id="Group" transform="translate(4.40625 5.96875)">
      <path d="M0.285937 0.571875C0.443856 0.571875 0.571875 0.443856 0.571875 0.285937C0.571875 0.128019 0.443856 0 0.285937 0C0.128019 0 0 0.128019 0 0.285937C0 0.443856 0.128019 0.571875 0.285937 0.571875Z" transform="translate(0.0103125 0.0020625)" id="Oval" fill="#FFFFFF" fill-rule="evenodd" stroke="none" />
      <path d="M0.285937 0.571875C0.443856 0.571875 0.571875 0.443856 0.571875 0.285937C0.571875 0.128019 0.443856 0 0.285937 0C0.128019 0 0 0.128019 0 0.285937C0 0.443856 0.128019 0.571875 0.285937 0.571875Z" transform="translate(6.834344 0.0020625)" id="Oval" fill="#FFFFFF" fill-rule="evenodd" stroke="none" />
    </g>
  </g>
</svg>