<?xml version="1.0" encoding="utf-8"?>
<svg width="14px" height="16px" viewbox="0 0 14 16" version="1.1" xmlns:xlink="http://www.w3.org/1999/xlink" xmlns="http://www.w3.org/2000/svg">
  <g id="356487">
    <path d="M4.25598 0C1.90359 0 0 1.63809 0 3.66238C0 5.68667 1.90359 7.32476 4.25598 7.32476C5.86652 7.32476 7.16982 5.68667 7.16982 3.66238C7.16982 1.63809 5.86658 0 4.25598 0Z" transform="translate(3.2227173 0.40118408)" id="Path" fill="#FFD7BF" fill-rule="evenodd" stroke="none" />
    <path d="M7.01578 0C3.14107 0 0 2.8854 0 6.44471L12.652 6.44471C12.6521 2.88535 9.9262 0 7.01578 0Z" transform="translate(0.40097046 9.11618)" id="Path" fill="#4A90E2" fill-rule="evenodd" stroke="none" />
    <path d="M3.95666 7.91342C6.13836 7.91342 7.91333 6.13845 7.91333 3.95671C7.91333 1.77497 6.1384 0 3.95666 0C1.77492 0 0 1.77497 0 3.95666C1.39493e-15 6.13845 1.77497 7.91342 3.95666 7.91342ZM3.95666 0.802012C5.69615 0.802012 7.11136 2.21718 7.11136 3.95671C7.11136 5.69625 5.6962 7.11146 3.95666 7.11146C2.21713 7.11146 0.801963 5.69625 0.801963 3.95671C0.801963 2.21718 2.21718 0.802012 3.95666 0.802012Z" transform="translate(2.8890228 0)" id="Shape" fill="#202841" stroke="none" />
    <path d="M6.84569 0.802012C10.0435 0.802012 12.6693 3.29831 12.8762 6.44471L2.21227 6.44471C2.21227 6.44471 2.21227 7.24668 2.21227 7.24668L13.2905 7.24668C13.5119 7.24668 13.6914 7.06714 13.6914 6.84569C13.6914 3.07097 10.6204 0 6.84569 0C3.07097 0 0 3.07107 0 6.84574C0 7.06719 0.179534 7.24672 0.400982 7.24672L2.21227 7.24672C2.21227 7.24672 2.21227 6.44476 2.21227 6.44476L0.815117 6.44476C1.02214 3.29836 3.6479 0.802012 6.84569 0.802012Z" transform="translate(0 8.715332)" id="Path" fill="#202841" fill-rule="evenodd" stroke="none" />
    <path d="M1.4703 1.29079C1.99594 1.29079 2.49597 1.06237 2.84223 0.664135C2.9875 0.497018 2.96983 0.243718 2.80272 0.0983924C2.63555 -0.0469328 2.38225 -0.029215 2.23697 0.137902C2.04316 0.36092 1.76365 0.488773 1.4703 0.488773C1.17695 0.488773 0.897489 0.360871 0.703624 0.137902C0.558299 -0.029215 0.305047 -0.0468837 0.137882 0.0983924C-0.0292349 0.243718 -0.0469036 0.496969 0.0983725 0.664135C0.44463 1.06232 0.944704 1.29079 1.4703 1.29079Z" transform="translate(5.3753815 4.4839783)" id="Path" fill="#202841" fill-rule="evenodd" stroke="none" />
  </g>
</svg>