<svg xmlns="http://www.w3.org/2000/svg" xmlns:xlink="http://www.w3.org/1999/xlink" width="92" height="92" viewBox="0 0 92 92">
  <defs>
    <filter id="Oval" x="0" y="0" width="92" height="92" filterUnits="userSpaceOnUse">
      <feOffset dy="1" input="SourceAlpha"/>
      <feGaussianBlur stdDeviation="2" result="blur"/>
      <feFlood flood-color="#ababab" flood-opacity="0.337"/>
      <feComposite operator="in" in2="blur"/>
      <feComposite in="SourceGraphic"/>
    </filter>
  </defs>
  <g id="Chat" transform="translate(6 5)">
    <g id="Chat-2" data-name="Chat">
      <g transform="matrix(1, 0, 0, 1, -6, -5)" filter="url(#Oval)">
        <circle id="Oval-2" data-name="Oval" cx="40" cy="40" r="40" transform="translate(6 5)" fill="#cfaa40"/>
      </g>
      <path id="ic_chat" d="M7.1,38.625a3.479,3.479,0,0,1-.823-2.358V33.529A19.327,19.327,0,0,1,1.64,27.1,18.8,18.8,0,0,1,0,19.411,19,19,0,0,1,5.872,5.673,20.176,20.176,0,0,1,20,0,20.18,20.18,0,0,1,34.129,5.673a19.011,19.011,0,0,1,0,27.477A20.183,20.183,0,0,1,20,38.822a20.568,20.568,0,0,1-5.962-.878L10.8,39.287a3.851,3.851,0,0,1-1.477.311A2.925,2.925,0,0,1,7.1,38.625ZM2.344,19.411A16.852,16.852,0,0,0,8.215,32.119a1.169,1.169,0,0,1,.4.885v3.263c0,.45.122.986.7.986a1.546,1.546,0,0,0,.58-.131l3.635-1.506a1.176,1.176,0,0,1,.813-.031A18.18,18.18,0,0,0,20,36.478c9.735,0,17.656-7.656,17.656-17.067S29.735,2.344,20,2.344,2.344,10,2.344,19.411Zm5.571,6.611a2.56,2.56,0,0,1,.418-2.513l4.987-8.421a4.014,4.014,0,0,1,3.47-2.009,4.08,4.08,0,0,1,2.373.769l4.058,2.887L29,12.809a3.361,3.361,0,0,1,1.812-.725,1.438,1.438,0,0,1,1.271.715,2.562,2.562,0,0,1-.418,2.513l-4.989,8.422a4.012,4.012,0,0,1-3.47,2.008,4.089,4.089,0,0,1-2.374-.769l-4.057-2.887L11,26.013a3.361,3.361,0,0,1-1.812.724A1.435,1.435,0,0,1,7.915,26.023ZM17.473,19.7l4.721,3.359a1.749,1.749,0,0,0,1.015.336,1.692,1.692,0,0,0,1.454-.859l3.912-6.607-4.711,3.2a1.171,1.171,0,0,1-1.337-.014L17.8,15.759a1.745,1.745,0,0,0-1.014-.335,1.691,1.691,0,0,0-1.453.859l-3.912,6.606,4.71-3.2a1.173,1.173,0,0,1,1.338.014Z" transform="translate(20 20)" fill="#fff"/>
    </g>
  </g>
</svg>
